<svg xmlns="http://www.w3.org/2000/svg" xmlns:xlink="http://www.w3.org/1999/xlink" viewBox="0 0 50 50" fill="#D05555">
  <path d="M33 0C26.933594 0 22 4.523438 22 10.09375C22 11.023438 22.238281 11.960938 22.71875 12.84375L22.28125 13.28125C22.09375 13.46875 22 13.734375 22 14C22 16.757813 24.242188 19 27 19L28 19L28 20C28 21.652344 29.347656 23 31 23L35 23C36.652344 23 38 21.652344 38 20L38 19L39 19C41.757813 19 44 16.757813 44 14C44 13.734375 43.90625 13.46875 43.71875 13.28125L43.28125 12.84375C43.761719 11.960938 44 11.023438 44 10.09375C44 4.523438 39.066406 0 33 0 Z M 28.375 10.375C28.609375 10.386719 28.78125 10.46875 28.78125 10.46875L31.21875 12.40625C31.21875 12.40625 30.90625 14.25 28.96875 14.25C27.03125 14.25 26.6875 12.1875 26.6875 12.1875C26.6875 12.1875 27.238281 11.28125 27.65625 10.71875C27.863281 10.4375 28.140625 10.363281 28.375 10.375 Z M 37.65625 10.375C37.890625 10.363281 38.167969 10.4375 38.375 10.71875C38.792969 11.28125 39.34375 12.1875 39.34375 12.1875C39.34375 12.1875 38.96875 14.25 37.03125 14.25C35.09375 14.25 34.78125 12.40625 34.78125 12.40625L37.21875 10.46875C37.21875 10.46875 37.421875 10.386719 37.65625 10.375 Z M 33 14.96875C33.148438 14.96875 33.304688 15.039063 33.40625 15.1875L34.6875 17.1875C34.785156 17.386719 34.605469 17.695313 34.40625 17.59375L33 17.3125L31.59375 17.59375C31.394531 17.695313 31.214844 17.386719 31.3125 17.1875L32.59375 15.1875C32.695313 15.039063 32.851563 14.96875 33 14.96875 Z M 3 17C1.347656 17 0 18.347656 0 20L0 50L6 50L6 45L44 45L44 50L50 50L50 38L6 38L6 20C6 18.347656 4.652344 17 3 17 Z M 12 26C9.242188 26 7 28.242188 7 31C7 33.757813 9.242188 36 12 36C14.757813 36 17 33.757813 17 31C17 28.242188 14.757813 26 12 26 Z M 19 26C18.449219 26 18 26.445313 18 27L18 36L50 36L50 31C50 28.242188 47.757813 26 45 26Z" fill="#D05555" />
</svg>