<?xml version="1.0" encoding="utf-8"?>
<svg xmlns="http://www.w3.org/2000/svg" viewBox="0 0 30 30" fill="#ffffff"><path d="M 6 3 A 1.0001 1.0001 0 1 0 6 5 L 16 5 A 1.0001 1.0001 0 1 0 16 3 L 6 3 z M 3 7 A 1.0001 1.0001 0 1 0 3 9 L 3 26 L 9 26 L 9 22 L 13 22 L 13 26 L 19 26 L 19 9 A 1.0001 1.0001 0 1 0 19 7 L 3 7 z M 5 10 L 7 10 L 7 12 L 5 12 L 5 10 z M 9 10 L 13 10 L 13 12 L 9 12 L 9 10 z M 15 10 L 17 10 L 17 12 L 15 12 L 15 10 z M 21 10 L 21 13 L 21 15 L 21 17 L 21 19 L 21 21 L 21 23 L 21 26 L 27 26 L 27 10 L 21 10 z M 23 13 L 25 13 L 25 15 L 23 15 L 23 13 z M 5 14 L 7 14 L 7 16 L 5 16 L 5 14 z M 9 14 L 13 14 L 13 16 L 9 16 L 9 14 z M 15 14 L 17 14 L 17 16 L 15 16 L 15 14 z M 23 17 L 25 17 L 25 19 L 23 19 L 23 17 z M 5 18 L 7 18 L 7 20 L 5 20 L 5 18 z M 9 18 L 13 18 L 13 20 L 9 20 L 9 18 z M 15 18 L 17 18 L 17 20 L 15 20 L 15 18 z M 23 21 L 25 21 L 25 23 L 23 23 L 23 21 z M 5 22 L 7 22 L 7 24 L 5 24 L 5 22 z M 15 22 L 17 22 L 17 24 L 15 24 L 15 22 z" fill="#ffffff"/></svg>
