<svg xmlns="http://www.w3.org/2000/svg" xmlns:xlink="http://www.w3.org/1999/xlink" viewBox="0 0 24 24" fill="#FFFFFF">
  <path d="M21.228,12l0.622-1.92c0.465-1.437-0.182-3-1.527-3.687l-1.797-0.918l-0.918-1.797c-0.687-1.345-2.25-1.993-3.687-1.527 L12,2.772L10.08,2.15c-1.437-0.465-3,0.182-3.687,1.527L5.474,5.474L3.677,6.393C2.332,7.08,1.685,8.643,2.15,10.08L2.772,12 L2.15,13.92c-0.465,1.437,0.182,3,1.527,3.687l1.797,0.918l0.918,1.797c0.687,1.345,2.25,1.993,3.687,1.527L12,21.228l1.92,0.622 c1.437,0.465,3-0.182,3.687-1.527l0.918-1.797l1.797-0.918c1.345-0.687,1.993-2.25,1.527-3.687L21.228,12z M10.293,15.707L8,13.414 C7.61,13.024,7.61,12.39,8,12l0,0c0.39-0.39,1.024-0.39,1.414,0L11,13.586L15.586,9C15.976,8.61,16.61,8.61,17,9v0 c0.39,0.39,0.39,1.024,0,1.414l-5.293,5.293C11.317,16.097,10.683,16.097,10.293,15.707z" fill="#FFFFFF" />
</svg>