<svg xmlns="http://www.w3.org/2000/svg" xmlns:xlink="http://www.w3.org/1999/xlink" viewBox="0 0 50 50" fill="#FEFEFE">
  <path d="M25 3C24.917969 3 24.835938 3.007813 24.757813 3.03125L4.757813 8.03125C4.222656 8.164063 3.894531 8.707031 4.03125 9.242188C4.164063 9.777344 4.707031 10.105469 5.242188 9.96875L7 9.53125L7 26L43 26L43 9.53125L44.757813 9.96875C44.839844 9.988281 44.921875 10 45 10C45.449219 10 45.855469 9.695313 45.96875 9.242188C46.105469 8.707031 45.777344 8.164063 45.242188 8.03125L25.242188 3.03125C25.164063 3.007813 25.082031 3 25 3 Z M 43 26L43 28L48 28L48 26 Z M 43 28L7 28L7 46C7 46.554688 7.445313 47 8 47L42 47C42.554688 47 43 46.554688 43 46 Z M 7 28L7 26L2 26L2 28 Z M 22.527344 10L28.285156 10L28.285156 11.714844L23.875 11.714844L23.304688 14.703125L23.335938 14.738281C23.578125 14.449219 23.890625 14.226563 24.265625 14.078125C24.644531 13.925781 25.019531 13.847656 25.390625 13.847656C25.941406 13.847656 26.433594 13.945313 26.871094 14.140625C27.304688 14.339844 27.671875 14.613281 27.96875 14.96875C28.265625 15.320313 28.488281 15.738281 28.644531 16.21875C28.796875 16.699219 28.875 17.222656 28.875 17.78125C28.875 18.25 28.804688 18.738281 28.660156 19.234375C28.519531 19.734375 28.289063 20.1875 27.976563 20.59375C27.664063 21.003906 27.265625 21.339844 26.777344 21.605469C26.285156 21.867188 25.703125 22 25.023438 22C24.480469 22 23.980469 21.925781 23.519531 21.773438C23.058594 21.621094 22.652344 21.394531 22.300781 21.09375C21.953125 20.789063 21.671875 20.417969 21.46875 19.972656C21.261719 19.53125 21.144531 19.015625 21.125 18.421875L22.9375 18.421875C22.992188 19.058594 23.199219 19.546875 23.5625 19.890625C23.921875 20.234375 24.398438 20.402344 24.996094 20.402344C25.375 20.402344 25.699219 20.335938 25.964844 20.203125C26.230469 20.066406 26.445313 19.882813 26.609375 19.644531C26.773438 19.410156 26.890625 19.136719 26.957031 18.824219C27.027344 18.507813 27.0625 18.171875 27.0625 17.8125C27.0625 17.488281 27.019531 17.179688 26.933594 16.878906C26.847656 16.582031 26.722656 16.324219 26.550781 16.097656C26.382813 15.875 26.164063 15.699219 25.890625 15.5625C25.621094 15.429688 25.304688 15.359375 24.945313 15.359375C24.5625 15.359375 24.207031 15.4375 23.871094 15.589844C23.535156 15.738281 23.296875 16.019531 23.144531 16.4375L21.332031 16.4375 Z M 21 31L25.882813 31C28.863281 31 29 33.527344 29 34C29 34.472656 28.863281 37 25.882813 37L23 37L23 42L21 42 Z M 23 33L23 35L25.882813 35C26.355469 35 27 35 27 34C27 33 26.355469 33 25.882813 33Z" fill="#FEFEFE" />
</svg>