<svg xmlns="http://www.w3.org/2000/svg" xmlns:xlink="http://www.w3.org/1999/xlink" viewBox="0 0 32 32" fill="#FCFCFC">
  <path d="M22 3L22 5L25.5625 5L22.1875 8.40625C20.984375 7.503906 19.53125 7 18 7C16.128906 7 14.382813 7.742188 13.0625 9.0625C11.742188 10.382813 11 12.128906 11 14C11 15.871094 11.742188 17.613281 13.0625 18.9375C13.933594 19.808594 14.96875 20.433594 16.125 20.75C16.238281 20.664063 16.367188 20.570313 16.46875 20.46875C16.902344 20.035156 17.183594 19.511719 17.34375 18.9375C16.253906 18.796875 15.257813 18.320313 14.46875 17.53125C13.523438 16.585938 13 15.335938 13 14C13 12.664063 13.523438 11.414063 14.46875 10.46875C15.414063 9.523438 16.664063 9 18 9C19.335938 9 20.585938 9.523438 21.53125 10.46875C22.476563 11.414063 23 12.664063 23 14C23 14.863281 22.753906 15.671875 22.34375 16.40625C22.441406 16.921875 22.5 17.464844 22.5 18C22.5 18.496094 22.457031 18.988281 22.375 19.46875C22.574219 19.308594 22.753906 19.121094 22.9375 18.9375C24.257813 17.613281 25 15.871094 25 14C25 12.46875 24.496094 11.015625 23.59375 9.8125L27 6.4375L27 10L29 10L29 3 Z M 15.875 11.25C15.761719 11.335938 15.632813 11.429688 15.53125 11.53125C15.097656 11.964844 14.816406 12.488281 14.65625 13.0625C15.746094 13.203125 16.742188 13.679688 17.53125 14.46875C18.476563 15.414063 19 16.664063 19 18C19 19.335938 18.476563 20.585938 17.53125 21.53125C16.585938 22.476563 15.335938 23 14 23C12.664063 23 11.414063 22.476563 10.46875 21.53125C9.523438 20.585938 9 19.335938 9 18C9 17.136719 9.246094 16.328125 9.65625 15.59375C9.558594 15.078125 9.5 14.535156 9.5 14C9.5 13.503906 9.542969 13.011719 9.625 12.53125C9.425781 12.691406 9.246094 12.878906 9.0625 13.0625C7.742188 14.386719 7 16.128906 7 18C7 19.53125 7.503906 20.984375 8.40625 22.1875L6.71875 23.875L4.71875 21.875L3.28125 23.28125L5.28125 25.28125L3.28125 27.28125L4.71875 28.71875L6.71875 26.71875L8.71875 28.71875L10.125 27.28125L8.125 25.28125L9.8125 23.59375C11.015625 24.5 12.464844 25 14 25C15.871094 25 17.617188 24.257813 18.9375 22.9375C20.257813 21.617188 21 19.871094 21 18C21 16.128906 20.257813 14.386719 18.9375 13.0625C18.066406 12.191406 17.03125 11.566406 15.875 11.25Z" fill="#FCFCFC" />
</svg>