<svg xmlns="http://www.w3.org/2000/svg" xmlns:xlink="http://www.w3.org/1999/xlink" viewBox="0 0 26 26" fill="#FEFEFE">
  <path d="M2.8125 1L1.5 1.6875C1.398438 1.6875 1.304688 1.804688 1.40625 1.90625L1.59375 2.59375C1.492188 2.792969 1.585938 2.804688 1.6875 2.90625L1.90625 2.90625L2.5 2.59375L2.5 6.5C2.5 6.601563 2.585938 6.6875 2.6875 6.6875L3.6875 6.6875C3.789063 6.6875 3.90625 6.601563 3.90625 6.5L3.90625 1.3125C3.90625 1.113281 3.789063 1 3.6875 1 Z M 9 3L9 5L26 5L26 3 Z M 2.8125 10C2.113281 10 1.5 10.195313 1 10.59375C0.898438 10.695313 0.90625 10.804688 0.90625 10.90625L1.1875 11.59375C1.1875 11.695313 1.304688 11.6875 1.40625 11.6875L1.59375 11.6875C1.894531 11.386719 2.292969 11.3125 2.59375 11.3125C3.09375 11.3125 3.3125 11.507813 3.3125 11.90625C3.3125 12.507813 2.792969 12.988281 1.59375 14.1875L1 14.6875L1 15.5C1 15.601563 1.085938 15.6875 1.1875 15.6875L4.6875 15.6875C4.789063 15.6875 4.90625 15.601563 4.90625 15.5L4.90625 14.6875C5.007813 14.488281 4.886719 14.40625 4.6875 14.40625L3.1875 14.40625C3.988281 13.605469 4.8125 12.8125 4.8125 11.8125C4.8125 10.914063 4.210938 10 2.8125 10 Z M 9 12L9 14L26 14L26 12 Z M 2.8125 18.90625C2.113281 18.90625 1.488281 19.113281 1.1875 19.3125C1.085938 19.414063 1.09375 19.492188 1.09375 19.59375L1.3125 20.3125C1.3125 20.414063 1.398438 20.398438 1.5 20.5L1.6875 20.5C1.886719 20.398438 2.292969 20.1875 2.59375 20.1875C2.792969 20.1875 3.1875 20.292969 3.1875 20.59375C3.1875 20.992188 2.605469 21.09375 2.40625 21.09375L2 21.09375C1.898438 21.09375 1.8125 21.210938 1.8125 21.3125L1.8125 22C1.8125 22.101563 1.898438 22.1875 2 22.1875L2.40625 22.1875C2.605469 22.1875 3.3125 22.210938 3.3125 22.8125C3.3125 23.210938 3 23.40625 2.5 23.40625C2.101563 23.40625 1.605469 23.195313 1.40625 23.09375L1.1875 23.09375C1.085938 23.09375 1.09375 23.210938 1.09375 23.3125L0.90625 24C0.90625 24.101563 0.898438 24.210938 1 24.3125C1.300781 24.511719 1.894531 24.6875 2.59375 24.6875C4.195313 24.6875 4.90625 23.804688 4.90625 22.90625C4.90625 22.40625 4.59375 21.894531 4.09375 21.59375C4.492188 21.292969 4.6875 20.90625 4.6875 20.40625C4.6875 19.605469 4.113281 18.90625 2.8125 18.90625 Z M 9 21L9 23L26 23L26 21Z" fill="#FEFEFE" />
</svg>