<svg xmlns="http://www.w3.org/2000/svg" xmlns:xlink="http://www.w3.org/1999/xlink" viewBox="0 0 24 24" fill="#FEFEFE">
  <path d="M4 2C3.8325 2 3.6646094 2.0639063 3.5371094 2.1914062L1.5117188 4.21875C1.2227188 4.50775 1.4279375 5 1.8359375 5L3 5L3 19C3 20.093063 3.9069372 21 5 21L19 21L19 22.166016C19 22.415551 19.187118 22.572486 19.396484 22.603516C19.52944 22.623221 19.669004 22.602092 19.78125 22.490234L21.808594 20.462891C21.936094 20.335391 22 20.1675 22 20C22 19.8325 21.936094 19.664609 21.808594 19.537109L19.78125 17.511719C19.49225 17.222719 19 17.427938 19 17.835938L19 19L17 19L17 10L17 9L17 8C17 7.448 16.552 7 16 7L14 7C13.448 7 13 7.448 13 8L13 9L11 9L11 8C11 7.448 10.552 7 10 7L8 7C7.448 7 7 7.448 7 8L7 9L5 9L5 5L6.1660156 5C6.5740156 5 6.7782344 4.50775 6.4902344 4.21875L4.4628906 2.1914062C4.3353906 2.0639063 4.1675 2 4 2 z M 9 3C8.448 3 8 3.448 8 4C8 4.552 8.448 5 9 5L19 5L19 15C19 15.552 19.448 16 20 16C20.552 16 21 15.552 21 15L21 5C21 3.895 20.105 3 19 3L9 3 z" fill="#FEFEFE" />
</svg>