<svg xmlns="http://www.w3.org/2000/svg" xmlns:xlink="http://www.w3.org/1999/xlink" viewBox="0 0 50 50" fill="#FEFEFE">
  <path d="M25 0C24.860125 9.2518585e-18 24.720344 0.029390625 24.589844 0.087890625L2.5898438 10.888672C2.2308438 11.050672 2 11.406781 2 11.800781L2 15.300781C2 15.640781 2.1729844 15.957625 2.4589844 16.140625C2.7449844 16.324625 3.1050625 16.350938 3.4140625 16.210938L25 5.4980469L46.587891 16.210938C46.719891 16.269937 46.859 16.300781 47 16.300781C47.189 16.300781 47.378969 16.245625 47.542969 16.140625C47.827969 15.956625 48 15.640781 48 15.300781L48 11.800781C48 11.406781 47.770156 11.049672 47.410156 10.888672L25.410156 0.087890625C25.280156 0.029390625 25.139875 -9.2518585e-18 25 0 z M 25 7.6191406L4 18L4 44C4 44.55 4.45 45 5 45L45 45C45.55 45 46 44.55 46 44L46 18L25 7.6191406 z M 24.029297 16L26.029297 16L26.029297 18.089844C29.359297 18.409844 31.579922 20.499688 31.669922 23.429688L29.349609 23.429688C29.289609 21.719687 27.739297 20.189453 25.029297 20.189453C22.319297 20.189453 20.800781 21.620312 20.800781 23.320312C20.800781 28.030313 32.029297 25.040703 32.029297 32.470703C32.029297 35.680703 29.819297 37.720547 26.029297 38.060547L26.029297 40L24.029297 40L24.029297 38.080078C20.359297 37.780078 17.990703 35.650391 17.970703 32.650391L20.310547 32.650391C20.460547 34.480391 22.279297 36.009766 25.029297 36.009766C27.779297 36.009766 29.660156 34.670156 29.660156 32.660156C29.660156 27.460156 18.449219 31.000937 18.449219 23.460938C18.449219 20.500937 20.579297 18.459609 24.029297 18.099609L24.029297 16 z" fill="#FEFEFE" />
</svg>