<svg xmlns="http://www.w3.org/2000/svg" xmlns:xlink="http://www.w3.org/1999/xlink" viewBox="0 0 48 48" fill="#FEFEFE">
  <path d="M6.5 4 A 1.5 1.5 0 0 0 6.5 7 A 1.5 1.5 0 0 0 6.5 4 z M 12.5 4 A 1.5 1.5 0 0 0 12.5 7 A 1.5 1.5 0 0 0 12.5 4 z M 18.5 4 A 1.5 1.5 0 0 0 18.5 7 A 1.5 1.5 0 0 0 18.5 4 z M 24.5 4 A 1.5 1.5 0 0 0 24.5 7 A 1.5 1.5 0 0 0 24.5 4 z M 30.5 4 A 1.5 1.5 0 0 0 30.5 7 A 1.5 1.5 0 0 0 30.5 4 z M 36.5 4 A 1.5 1.5 0 0 0 36.5 7 A 1.5 1.5 0 0 0 36.5 4 z M 42.5 4 A 1.5 1.5 0 0 0 42.5 7 A 1.5 1.5 0 0 0 42.5 4 z M 6.5 10 A 1.5 1.5 0 0 0 6.5 13 A 1.5 1.5 0 0 0 6.5 10 z M 42.5 10 A 1.5 1.5 0 0 0 42.5 13 A 1.5 1.5 0 0 0 42.5 10 z M 34.470703 11.986328 A 1.50015 1.50015 0 0 0 34.308594 12L26.722656 12 A 1.50015 1.50015 0 1 0 26.722656 15L30.878906 15L24.177734 21.701172C23.384249 21.256526 22.472557 21 21.5 21L10.5 21C7.467 21 5 23.467 5 26.5L5 37.5C5 40.533 7.467 43 10.5 43L21.5 43C24.533 43 27 40.533 27 37.5L27 26.5C27 25.527443 26.743474 24.615751 26.298828 23.822266L33 17.121094L33 21.277344 A 1.50015 1.50015 0 1 0 36 21.277344L36 13.689453 A 1.50015 1.50015 0 0 0 34.470703 11.986328 z M 6.5 16 A 1.5 1.5 0 0 0 6.5 19 A 1.5 1.5 0 0 0 6.5 16 z M 42.5 16 A 1.5 1.5 0 0 0 42.5 19 A 1.5 1.5 0 0 0 42.5 16 z M 42.5 22 A 1.5 1.5 0 0 0 42.5 25 A 1.5 1.5 0 0 0 42.5 22 z M 42.5 28 A 1.5 1.5 0 0 0 42.5 31 A 1.5 1.5 0 0 0 42.5 28 z M 42.5 34 A 1.5 1.5 0 0 0 42.5 37 A 1.5 1.5 0 0 0 42.5 34 z M 30.5 40 A 1.5 1.5 0 0 0 30.5 43 A 1.5 1.5 0 0 0 30.5 40 z M 36.5 40 A 1.5 1.5 0 0 0 36.5 43 A 1.5 1.5 0 0 0 36.5 40 z M 42.5 40 A 1.5 1.5 0 0 0 42.5 43 A 1.5 1.5 0 0 0 42.5 40 z" fill="#FEFEFE" />
</svg>