<svg xmlns="http://www.w3.org/2000/svg" xmlns:xlink="http://www.w3.org/1999/xlink" viewBox="0 0 30 30" fill="#FCFCFC">
  <path d="M8 0 A 1 1 0 0 0 7 1 A 1 1 0 0 0 8 2 A 1 1 0 0 0 9 1 A 1 1 0 0 0 8 0 z M 15.005859 0C14.690627 -0.00060546875 14.367438 0.035078125 14.039062 0.11132812C12.622063 0.44132813 11.467094 1.5820938 11.121094 2.9960938C10.756094 4.4870938 11.231109 5.8687812 12.162109 6.8007812C12.376109 7.0147812 12.646266 7.457 12.822266 8L17.179688 8C17.359687 7.452 17.637516 7.0022031 17.853516 6.7832031C18.561516 6.0662031 19 5.088 19 4C19 1.79325 17.212486 0.0042382813 15.005859 0 z M 22 0 A 1 1 0 0 0 21 1 A 1 1 0 0 0 22 2 A 1 1 0 0 0 23 1 A 1 1 0 0 0 22 0 z M 6 3 A 1 1 0 0 0 5 4 A 1 1 0 0 0 6 5 A 1 1 0 0 0 7 4 A 1 1 0 0 0 6 3 z M 24 3 A 1 1 0 0 0 23 4 A 1 1 0 0 0 24 5 A 1 1 0 0 0 25 4 A 1 1 0 0 0 24 3 z M 8 6 A 1 1 0 0 0 7 7 A 1 1 0 0 0 8 8 A 1 1 0 0 0 9 7 A 1 1 0 0 0 8 6 z M 22 6 A 1 1 0 0 0 21 7 A 1 1 0 0 0 22 8 A 1 1 0 0 0 23 7 A 1 1 0 0 0 22 6 z M 13 9C13 10.215 14.082937 11.175656 15.335938 10.972656C16.283938 10.817656 16.943234 9.954 16.990234 9L13 9 z M 9 11.001953C6.577 11.001953 4.6113281 12.460266 4.6113281 15.072266C4.6113281 16.176266 5.2324219 17.037109 5.2324219 17.037109C5.2324219 17.037109 4.9492188 17.173672 4.9492188 17.763672C4.9492188 18.909672 5.6855469 19.183594 5.6855469 19.183594C5.7645469 19.879594 6.609 20.818703 7 21.220703L7 22.345703C6.068 23.770703 3.954 23.525 3 26L15 26C14.046 23.525 11.932 23.769703 11 22.345703L11 21.222656C11.391 20.820656 12.235453 19.880547 12.314453 19.185547C12.314453 19.185547 13.050781 18.676625 13.050781 17.765625C13.050781 17.133625 12.767578 17.037109 12.767578 17.037109C12.767578 17.037109 13.275391 16.076203 13.275391 15.158203C13.275391 13.318203 12.351781 11.902344 10.800781 11.902344C10.800781 11.902344 10.141 11.001953 9 11.001953 z M 21 11.001953C18.577 11.001953 16.611328 12.460266 16.611328 15.072266C16.611328 16.176266 17.232422 17.037109 17.232422 17.037109C17.232422 17.037109 16.949219 17.173672 16.949219 17.763672C16.949219 18.909672 17.685547 19.183594 17.685547 19.183594C17.764547 19.879594 18.609 20.818703 19 21.220703L19 22.345703C18.394 23.271703 17.289125 23.494844 16.328125 24.214844C16.524125 24.530844 16.709234 24.875297 16.865234 25.279297L17.144531 26L27 26C26.046 23.525 23.932 23.769703 23 22.345703L23 21.222656C23.391 20.820656 24.235453 19.880547 24.314453 19.185547C24.314453 19.185547 25.050781 18.676625 25.050781 17.765625C25.050781 17.133625 24.767578 17.037109 24.767578 17.037109C24.767578 17.037109 25.275391 16.076203 25.275391 15.158203C25.275391 13.318203 24.351781 11.902344 22.800781 11.902344C22.800781 11.902344 22.141 11.001953 21 11.001953 z" fill="#FCFCFC" />
</svg>