<svg xmlns="http://www.w3.org/2000/svg" xmlns:xlink="http://www.w3.org/1999/xlink" viewBox="0 0 32 32" fill="#E9C46A">
  <path d="M7 4L7 6L9 6L9 10C9 12.542969 10.367188 14.773438 12.40625 16C10.367188 17.226563 9 19.457031 9 22L9 26L7 26L7 28L25 28L25 26L23 26L23 22C23 19.457031 21.632813 17.226563 19.59375 16C21.632813 14.773438 23 12.542969 23 10L23 6L25 6L25 4 Z M 11 6L21 6L21 10C21 12.773438 18.773438 15 16 15C13.226563 15 11 12.773438 11 10 Z M 16 17C18.773438 17 21 19.226563 21 22L21 26L11 26L11 22C11 19.226563 13.226563 17 16 17Z" fill="#E9C46A" />
</svg>