<svg xmlns="http://www.w3.org/2000/svg" xmlns:xlink="http://www.w3.org/1999/xlink" viewBox="0 0 24 24" fill="#E9C46A">
  <path d="M18.705,8.004C17.839,5.056,15.15,3,12,3C9.708,3,7.56,4.138,6.258,6.005C2.48,6.144-0.485,9.522,0.066,13.438 C0.522,16.676,3.445,19,6.714,19H9h2v-6H8.913H8.835c-0.372,0-0.558-0.449-0.295-0.712l3.165-3.165c0.163-0.163,0.427-0.163,0.59,0 l3.165,3.165C15.723,12.551,15.537,13,15.165,13h-0.078H13v6h2h3.266c2.841,0,5.387-2.053,5.7-4.876 C24.324,10.883,21.847,8.119,18.705,8.004z" fill="#E9C46A" />
</svg>