<?xml version="1.0" encoding="UTF-8"?>
<svg xmlns="http://www.w3.org/2000/svg" xmlns:xlink="http://www.w3.org/1999/xlink" viewBox="0 0 26 26" version="1.1" fill="#ffffff"><g id="surface1" fill="#ffffff"><path style=" " d="M 16.050781 16.417969 C 16.050781 16.417969 14.671875 16.105469 15.324219 14.738281 C 16.128906 13.660156 16.621094 12.4375 16.660156 12.035156 C 16.660156 12.035156 17.902344 11.0625 17.972656 9.601563 C 18.050781 8.144531 17.703125 8.078125 17.703125 8.078125 C 18.222656 6.488281 18.390625 0.523438 14.546875 1.238281 C 13.90625 -0.015625 9.886719 -0.996094 8.015625 2.339844 C 7.078125 4 6.730469 6.269531 7.460938 8.121094 C 7.433594 8.257813 7.203125 7.984375 7.117188 8.839844 C 7.039063 9.664063 7.410156 10.847656 7.816406 11.398438 C 7.992188 11.628906 8.273438 11.796875 8.472656 11.882813 C 8.472656 11.882813 8.71875 13.351563 9.871094 14.738281 C 10.136719 15.835938 9.039063 16.417969 9.039063 16.417969 C 5.410156 17.113281 2.074219 19.117188 2.074219 21.289063 C 2.074219 21.449219 2.074219 22.96875 2.074219 22.96875 C 2.074219 25.324219 7.585938 25.828125 12.542969 25.828125 C 17.5 25.828125 22.972656 24.410156 22.972656 22.96875 C 22.972656 22.96875 22.972656 21.449219 22.972656 21.289063 C 22.972656 19.117188 19.675781 17.113281 16.050781 16.417969 Z M 10.96875 24.808594 C 10.96875 22 12.203125 20.0625 12.203125 20.0625 L 10.9375 19.359375 C 10.9375 18.75 12.523438 18.046875 12.523438 18.046875 C 12.523438 18.046875 14.042969 18.71875 14.042969 19.359375 L 12.839844 20.0625 C 12.839844 20.0625 14.046875 22 14.046875 24.835938 C 14.046875 25.226563 10.96875 25.136719 10.96875 24.808594 Z " fill="#ffffff"/></g></svg>
