<svg xmlns="http://www.w3.org/2000/svg" xmlns:xlink="http://www.w3.org/1999/xlink" viewBox="0 0 30 30" fill="#5CBB5C">
  <path d="M7.0703125 2.0019531C5.7858125 2.0408281 4.51425 2.54875 3.53125 3.53125C1.56625 5.49725 1.4991094 8.6174531 3.2871094 10.689453L10.689453 3.2871094C9.6534531 2.3931094 8.3548125 1.9630781 7.0703125 2.0019531 z M 22.917969 2.015625C21.633594 1.97675 20.336281 2.4072812 19.300781 3.3007812L26.701172 10.701172C28.489172 8.6301719 28.421078 5.5099219 26.455078 3.5449219C25.472078 2.5619219 24.202344 2.0545 22.917969 2.015625 z M 15 5C8.925 5 4 9.925 4 16C4 18.932141 5.1552124 21.588665 7.0253906 23.560547L5.2929688 25.292969 A 1.0001 1.0001 0 1 0 6.7070312 26.707031L8.53125 24.882812C10.348073 26.208304 12.578931 27 15 27C17.421069 27 19.651927 26.208304 21.46875 24.882812L23.292969 26.707031 A 1.0001 1.0001 0 1 0 24.707031 25.292969L22.974609 23.560547C24.844788 21.588665 26 18.932141 26 16C26 9.925 21.075 5 15 5 z M 21 11C21.25575 11 21.511531 11.097469 21.707031 11.292969C22.098031 11.683969 22.098031 12.316031 21.707031 12.707031L14.146484 20.267578C13.958484 20.455578 13.704453 20.560547 13.439453 20.560547C13.174453 20.560547 12.919422 20.455578 12.732422 20.267578L9.2792969 16.814453C8.8882969 16.423453 8.8882969 15.791391 9.2792969 15.400391C9.6702969 15.009391 10.302359 15.009391 10.693359 15.400391L13.439453 18.146484L20.292969 11.292969C20.488469 11.097469 20.74425 11 21 11 z" fill="#5CBB5C" />
</svg>