<svg xmlns="http://www.w3.org/2000/svg" xmlns:xlink="http://www.w3.org/1999/xlink" viewBox="0 0 50 50" fill="#D05555">
  <path d="M38.03125 2.003906C36.847656 2 35.660156 2.199219 34.519531 2.625L32.957031 3.234375L45.675781 15.953125L46.796875 16.96875L47.347656 15.535156C47.378906 15.464844 47.410156 15.394531 47.433594 15.324219C48.703125 11.710938 47.773438 7.632813 45.070313 4.929688C43.175781 3.035156 40.625 2.015625 38.03125 2.003906 Z M 12.554688 2.015625C9.757813 1.871094 6.957031 2.902344 4.929688 4.929688C2.175781 7.683594 1.269531 11.824219 2.621094 15.480469L3.234375 17.039063L15.953125 4.320313L16.964844 3.210938L15.539063 2.652344C15.46875 2.621094 15.394531 2.589844 15.324219 2.5625C14.417969 2.246094 13.488281 2.066406 12.554688 2.015625 Z M 25 6C13.421875 6 4 15.421875 4 27C4 38.578125 13.421875 48 25 48C36.578125 48 46 38.578125 46 27C46 15.421875 36.578125 6 25 6 Z M 34.292969 19.292969L35.707031 20.707031L23 33.414063L16.292969 26.707031L17.707031 25.292969L23 30.585938 Z M 8.542969 43.046875L5.292969 46.292969C4.902344 46.683594 4.902344 47.316406 5.292969 47.707031C5.488281 47.902344 5.742188 48 6 48C6.257813 48 6.511719 47.902344 6.707031 47.707031L10 44.414063C9.496094 43.976563 9.007813 43.523438 8.542969 43.046875 Z M 43.457031 43.046875C42.992188 43.523438 42.503906 43.976563 42 44.414063L45.292969 47.707031C45.488281 47.902344 45.742188 48 46 48C46.257813 48 46.511719 47.902344 46.707031 47.707031C47.097656 47.316406 47.097656 46.683594 46.707031 46.292969Z" fill="#D05555" />
</svg>