<svg xmlns="http://www.w3.org/2000/svg" xmlns:xlink="http://www.w3.org/1999/xlink" viewBox="0 0 30 30" fill="#FEFEFE">
  <path d="M8.5 0C6.026562 0 4 2.026562 4 4.5L4 11L2 11 A 1.0001 1.0001 0 1 0 2 13L4.8320312 13 A 1.0001 1.0001 0 0 0 5.1582031 13L28 13 A 1.0001 1.0001 0 1 0 28 11L6 11L6 4.5C6 3.107438 7.107438 2 8.5 2C9.7874305 2 10.818494 2.9500626 10.96875 4.1933594C9.8219828 4.6149525 9 5.7068815 9 7L15 7C15 5.6838676 14.147682 4.5781212 12.96875 4.1738281C12.804484 1.9830796 11.047436 0.25590586 8.8574219 0.072265625 A 1.0001 1.0001 0 0 0 8.5 0 z M 2 15L3.3125 21.058594C3.8115 23.358594 5.8462188 25 8.1992188 25L21.800781 25C24.153781 25 26.1895 23.358594 26.6875 21.058594L28 15L2 15 z" fill="#FEFEFE" />
</svg>