<svg xmlns="http://www.w3.org/2000/svg" xmlns:xlink="http://www.w3.org/1999/xlink" viewBox="0 0 24 24" fill="#E9C46A">
  <path d="M11.15625 3L9.3203125 5L4 5C2.9 5 2 5.9 2 7L2 19C2 20.1 2.9 21 4 21L20 21C21.1 21 22 20.1 22 19L22 7C22 5.9 21.1 5 20 5L19 5L17.15625 3L11.15625 3 z M 6 8C6.552 8 7 8.448 7 9C7 9.552 6.552 10 6 10C5.448 10 5 9.552 5 9C5 8.448 5.448 8 6 8 z M 14 8C16.761 8 19 10.239 19 13C19 15.761 16.761 18 14 18C11.239 18 9 15.761 9 13C9 10.239 11.239 8 14 8 z M 14 10 A 3 3 0 0 0 11 13 A 3 3 0 0 0 14 16 A 3 3 0 0 0 17 13 A 3 3 0 0 0 14 10 z" fill="#E9C46A" />
</svg>