<?xml version="1.0" encoding="UTF-8"?>
<svg xmlns="http://www.w3.org/2000/svg" xmlns:xlink="http://www.w3.org/1999/xlink" viewBox="0 0 50 50" version="1.1" fill="#ffffff"><g id="surface1" fill="#ffffff"><path style=" " d="M 47.199219 3 L 2.800781 3 C 1.257813 3 0 4.257813 0 5.800781 L 0 46 C 0 46.554688 0.449219 47 1 47 L 49 47 C 49.554688 47 50 46.554688 50 46 L 50 5.800781 C 50 4.257813 48.742188 3 47.199219 3 Z M 13 39 L 10 39 L 10 37 L 13 37 Z M 13 33 L 10 33 L 10 31 L 13 31 Z M 13 27 L 10 27 L 10 25 L 13 25 Z M 40 39 L 17 39 L 17 37 L 40 37 Z M 40 33 L 17 33 L 17 31 L 40 31 Z M 40 27 L 17 27 L 17 25 L 40 25 Z M 40 19 L 10 19 L 10 17 L 40 17 Z M 48 11 L 2 11 L 2 5.800781 C 2 5.351563 2.351563 5 2.800781 5 L 47.199219 5 C 47.648438 5 48 5.351563 48 5.800781 Z " fill="#ffffff"/></g></svg>
