<svg xmlns="http://www.w3.org/2000/svg" xmlns:xlink="http://www.w3.org/1999/xlink" viewBox="0 0 48 48" fill="#E9C46A">
  <path d="M12.5 5C10.019 5 8 7.019 8 9.5L8 38.5C8 40.981 10.019 43 12.5 43L24 43L24 32.5C24 30.019 26.019 28 28.5 28L40 28L40 9.5C40 7.019 37.981 5 35.5 5L12.5 5 z M 17.5 13C18.328 13 19 13.672 19 14.5C19 15.328 18.328 16 17.5 16C16.672 16 16 15.328 16 14.5C16 13.672 16.672 13 17.5 13 z M 22.5 13L29.5 13C30.328 13 31 13.672 31 14.5C31 15.328 30.328 16 29.5 16L22.5 16C21.672 16 21 15.328 21 14.5C21 13.672 21.672 13 22.5 13 z M 17.5 20C18.328 20 19 20.672 19 21.5C19 22.328 18.328 23 17.5 23C16.672 23 16 22.328 16 21.5C16 20.672 16.672 20 17.5 20 z M 22.5 20L29.5 20C30.328 20 31 20.672 31 21.5C31 22.328 30.328 23 29.5 23L22.5 23C21.672 23 21 22.328 21 21.5C21 20.672 21.672 20 22.5 20 z M 28.5 31C27.673 31 27 31.673 27 32.5L27 42.121094L39.121094 31L28.5 31 z" fill="#E9C46A" />
</svg>