<svg xmlns="http://www.w3.org/2000/svg" xmlns:xlink="http://www.w3.org/1999/xlink" viewBox="0 0 24 24" fill="#FEFEFE">
  <path d="M19.171875 2C18.448125 2 17.724375 2.275625 17.171875 2.828125L16 4L20 8L21.171875 6.828125C22.275875 5.724125 22.275875 3.933125 21.171875 2.828125C20.619375 2.275625 19.895625 2 19.171875 2 z M 8 2.828125C7.48825 2.828125 6.9764375 3.0235625 6.5859375 3.4140625L3.4140625 6.5859375C2.6330625 7.3669375 2.6330625 8.6330625 3.4140625 9.4140625L5.0546875 11.054688C5.4456875 11.445688 6.07875 11.445688 6.46875 11.054688C6.85975 10.664687 6.8607031 10.031625 6.4707031 9.640625L4.828125 8L8 4.828125L9.640625 6.4707031C10.031625 6.8617031 10.664688 6.8617031 11.054688 6.4707031C11.445688 6.0797031 11.445688 5.4466406 11.054688 5.0566406L9.4140625 3.4140625C9.0235625 3.0235625 8.51175 2.828125 8 2.828125 z M 14.5 5.5L3.5859375 16.414062C3.2109375 16.789062 3 17.298125 3 17.828125L3 21L6.171875 21C6.701875 21 7.2109375 20.789062 7.5859375 20.414062L18.5 9.5L14.5 5.5 z M 18.238281 12.652344C17.982281 12.652219 17.724797 12.748359 17.529297 12.943359C17.138297 13.334359 17.138297 13.967422 17.529297 14.357422L19.171875 16L16 19.171875L14.359375 17.53125C13.968375 17.14025 13.335313 17.14025 12.945312 17.53125C12.554312 17.92225 12.554313 18.555312 12.945312 18.945312L14.585938 20.585938C15.366938 21.366937 16.633063 21.366937 17.414062 20.585938L20.585938 17.414062C21.366937 16.633063 21.366938 15.366937 20.585938 14.585938L18.945312 12.945312C18.749812 12.749813 18.494281 12.652469 18.238281 12.652344 z" fill="#FEFEFE" />
</svg>