<svg xmlns="http://www.w3.org/2000/svg" xmlns:xlink="http://www.w3.org/1999/xlink" viewBox="0 0 50 50" fill="#FEFEFE">
  <path d="M12.5 2C6.699219 2 2 6.699219 2 12.5L2 37.59375C2 43.292969 6.699219 48 12.5 48L37.59375 48C43.292969 48 48 43.300781 48 37.5L48 12.5C48 6.699219 43.300781 2 37.5 2 Z M 25 6C29.898438 6 34.289063 7.90625 37.6875 10.90625L41.3125 7.3125C41.710938 6.914063 42.289063 6.914063 42.6875 7.3125C43.085938 7.710938 43.085938 8.289063 42.6875 8.6875L39.09375 12.3125C42.09375 15.710938 44 20.101563 44 25C44 29.898438 42.09375 34.289063 39.09375 37.6875L42.6875 41.3125C43.085938 41.710938 43.085938 42.289063 42.6875 42.6875C42.488281 42.886719 42.300781 43 42 43C41.699219 43 41.511719 42.886719 41.3125 42.6875L37.6875 39.09375C34.289063 42.09375 29.898438 44 25 44C20.101563 44 15.710938 42.09375 12.3125 39.09375L8.6875 42.6875C8.488281 42.886719 8.300781 43 8 43C7.699219 43 7.511719 42.886719 7.3125 42.6875C6.914063 42.289063 6.914063 41.710938 7.3125 41.3125L10.90625 37.6875C7.90625 34.289063 6 29.898438 6 25C6 20.101563 7.90625 15.710938 10.90625 12.3125L7.3125 8.6875C6.914063 8.289063 6.914063 7.710938 7.3125 7.3125C7.710938 6.914063 8.289063 6.914063 8.6875 7.3125L12.3125 10.90625C15.710938 7.90625 20.101563 6 25 6 Z M 25 8C20.699219 8 16.6875 9.613281 13.6875 12.3125L18.6875 17.3125C20.386719 15.8125 22.601563 15 25 15C27.398438 15 29.613281 15.8125 31.3125 17.3125L36.3125 12.3125C33.3125 9.613281 29.300781 8 25 8 Z M 12.3125 13.6875C9.613281 16.6875 8 20.699219 8 25C8 29.300781 9.613281 33.3125 12.3125 36.3125L17.3125 31.3125C15.8125 29.613281 15 27.398438 15 25C15 22.601563 15.8125 20.386719 17.3125 18.6875 Z M 37.6875 13.6875L32.6875 18.6875C34.085938 20.386719 35 22.601563 35 25C35 27.398438 34.1875 29.613281 32.6875 31.3125L37.6875 36.3125C40.386719 33.3125 42 29.398438 42 25C42 20.601563 40.386719 16.6875 37.6875 13.6875 Z M 25 17C23.199219 17 21.492188 17.585938 20.09375 18.6875L25 23.59375L29.90625 18.6875C28.507813 17.585938 26.800781 17 25 17 Z M 18.6875 20.09375C17.585938 21.492188 17 23.199219 17 25C17 26.800781 17.585938 28.507813 18.6875 29.90625L23.59375 25 Z M 31.3125 20.09375L26.40625 25L31.3125 29.90625C32.414063 28.507813 33 26.800781 33 25C33 23.199219 32.414063 21.492188 31.3125 20.09375 Z M 25 26.40625L20.09375 31.3125C21.492188 32.414063 23.199219 33 25 33C26.800781 33 28.507813 32.414063 29.90625 31.3125 Z M 18.6875 32.6875L13.6875 37.6875C16.6875 40.386719 20.601563 42 25 42C29.398438 42 33.3125 40.386719 36.3125 37.6875L31.3125 32.6875C29.613281 34.1875 27.398438 35 25 35C22.601563 35 20.386719 34.1875 18.6875 32.6875Z" fill="#FEFEFE" />
</svg>