<svg xmlns="http://www.w3.org/2000/svg" xmlns:xlink="http://www.w3.org/1999/xlink" viewBox="0 0 24 24" fill="#FCFCFC">
  <path d="M12 2C11.172 2 10.5 2.672 10.5 3.5L10.5 4.1953125C7.9131836 4.862095 6 7.2048001 6 10L6 15L18 15L18 10C18 7.2048001 16.086816 4.862095 13.5 4.1953125L13.5 3.5C13.5 2.672 12.828 2 12 2 z M 5 17 A 1.0001 1.0001 0 1 0 5 19L10.269531 19 A 2 2 0 0 0 10 20 A 2 2 0 0 0 12 22 A 2 2 0 0 0 14 20 A 2 2 0 0 0 13.728516 19L19 19 A 1.0001 1.0001 0 1 0 19 17L5 17 z" fill="#FCFCFC" />
</svg>