<svg xmlns="http://www.w3.org/2000/svg" xmlns:xlink="http://www.w3.org/1999/xlink" viewBox="0 0 26 26" fill="#FCFCFC">
  <path d="M13 0C10.320313 0 8.195313 0.832031 6.84375 2.34375C5.492188 3.855469 5 5.839844 5 7.90625L5 9L8 9L8 7.90625C8 6.3125 8.359375 5.128906 9.0625 4.34375C9.765625 3.558594 10.898438 3 13 3C15.105469 3 16.238281 3.535156 16.9375 4.3125C17.636719 5.089844 18 6.296875 18 7.90625L18 9L21 9L21 7.90625C21 5.828125 20.511719 3.820313 19.15625 2.3125C17.800781 0.804688 15.675781 0 13 0 Z M 5 10C3.34375 10 2 11.34375 2 13L2 23C2 24.65625 3.34375 26 5 26L21 26C22.65625 26 24 24.65625 24 23L24 13C24 11.34375 22.65625 10 21 10 Z M 7 16C8.105469 16 9 16.894531 9 18C9 19.105469 8.105469 20 7 20C5.894531 20 5 19.105469 5 18C5 16.894531 5.894531 16 7 16 Z M 13 16C14.105469 16 15 16.894531 15 18C15 19.105469 14.105469 20 13 20C11.894531 20 11 19.105469 11 18C11 16.894531 11.894531 16 13 16 Z M 19 16C20.105469 16 21 16.894531 21 18C21 19.105469 20.105469 20 19 20C17.894531 20 17 19.105469 17 18C17 16.894531 17.894531 16 19 16Z" fill="#FCFCFC" />
</svg>