<svg xmlns="http://www.w3.org/2000/svg" xmlns:xlink="http://www.w3.org/1999/xlink" viewBox="0 0 48 48" fill="#FEFEFE">
  <path d="M23.927734 4.0019531 A 1.50015 1.50015 0 0 0 23.345703 4.1503906L5.8457031 12.634766 A 1.50015 1.50015 0 0 0 6 15.419922L6 22C6 23.105 6.895 24 8 24L20.5 24C21.605 24 22.5 23.105 22.5 22L22.5 7.8945312L24 7.1679688L25.5 7.8945312L25.5 22C25.5 23.105 26.395 24 27.5 24L40 24C41.105 24 42 23.105 42 22L42 15.421875 A 1.50015 1.50015 0 0 0 42.154297 12.634766L24.654297 4.1503906 A 1.50015 1.50015 0 0 0 23.927734 4.0019531 z M 13.5 14L15.5 14C16.329 14 17 14.671 17 15.5C17 16.329 16.329 17 15.5 17L13.5 17C12.671 17 12 16.329 12 15.5C12 14.671 12.671 14 13.5 14 z M 32.5 14L34.5 14C35.329 14 36 14.671 36 15.5C36 16.329 35.329 17 34.5 17L32.5 17C31.671 17 31 16.329 31 15.5C31 14.671 31.671 14 32.5 14 z M 8 27C6.895 27 6 27.895 6 29L6 37.5C6 40.538 8.462 43 11.5 43L20.5 43C21.605 43 22.5 42.105 22.5 41L22.5 29C22.5 27.895 21.605 27 20.5 27L8 27 z M 27.5 27C26.395 27 25.5 27.895 25.5 29L25.5 41C25.5 42.105 26.395 43 27.5 43L36.5 43C39.538 43 42 40.538 42 37.5L42 29C42 27.895 41.105 27 40 27L27.5 27 z M 13.5 30L15.5 30C16.329 30 17 30.671 17 31.5C17 32.329 16.329 33 15.5 33L13.5 33C12.671 33 12 32.329 12 31.5C12 30.671 12.671 30 13.5 30 z M 32.5 30L34.5 30C35.329 30 36 30.671 36 31.5C36 32.329 35.329 33 34.5 33L32.5 33C31.671 33 31 32.329 31 31.5C31 30.671 31.671 30 32.5 30 z" fill="#FEFEFE" />
</svg>