<svg xmlns="http://www.w3.org/2000/svg" xmlns:xlink="http://www.w3.org/1999/xlink" viewBox="0 0 30 30" fill="#FEFEFE">
  <path d="M25.983,13.342C25.988,13.228,26,13.116,26,13c0-4.418-3.582-8-8-8c-3.11,0-5.8,1.779-7.123,4.371C10.296,9.136,9.665,9,9,9 c-2.53,0-4.599,1.885-4.932,4.324C1.703,14.129,0,16.363,0,19c0,3.314,2.686,6,6,6h18c3.314,0,6-2.686,6-6 C30,16.382,28.321,14.162,25.983,13.342z M15,23c-3.309,0-6-2.691-6-6H7l3-3l3,3h-2c0,2.206,1.794,4,4,4V23z M20,20l-3-3h2 c0-2.206-1.794-4-4-4v-2c3.309,0,6,2.691,6,6h2L20,20z" fill="#FEFEFE" />
</svg>