<svg xmlns="http://www.w3.org/2000/svg" xmlns:xlink="http://www.w3.org/1999/xlink" viewBox="0 0 24 24" fill="#5CBB5C">
  <path d="M4 4C2.895 4 2 4.895 2 6L2 18C2 19.105 2.895 20 4 20L15.757812 20L14.595703 18.837891L12.757812 17L5 17L8.5 12.5L11 15.509766L14.5 11L16.6875 13.917969L17.423828 13.181641L20.005859 15.761719L22 13.767578L22 6C22 4.895 21.105 4 20 4L4 4 z M 17.423828 16.009766L16.009766 17.423828L18.591797 20.005859L16.009766 22.585938L17.423828 24L20.005859 21.419922L22.585938 24L24 22.585938L21.419922 20.005859L24 17.423828L22.585938 16.009766L20.005859 18.591797L17.423828 16.009766 z" fill="#5CBB5C" />
</svg>