<svg xmlns="http://www.w3.org/2000/svg" xmlns:xlink="http://www.w3.org/1999/xlink" viewBox="0 0 16 16"><path fill="#c74343" fill-rule="evenodd" d="M14.728,8.528c-0.409-1.61-1.545-1.404-3.183-1.487 c-0.175,0-1.454-0.041-4-0.041c-0.016,0-0.074,0-0.09,0c-2.546,0-3.825,0.041-4,0.041C1.818,7.124,0.682,6.918,0.272,8.528 C0.09,9.436,0,10.592,0,11.479c0.09,1.922-0.09,4.231,1.953,4.399C2.996,15.96,5.703,16,7.5,16c1.797,0,4.504-0.04,5.547-0.123 C15.09,15.71,14.91,13.401,15,11.479C15,10.592,14.91,9.436,14.728,8.528z" clip-rule="evenodd"/><path fill="#36404d" d="M5.162 0L4.318 2.4 3.474 0 2.629 0 3.896 3.6 3.896 6 4.74 6 4.74 3.6 6.007 0zM11.156 1.5l0 3.321c0 0-.184.425-.528.429-.309.003-.35-.169-.35-.268l0-3.482H9.433l0 3.643C9.433 5.786 9.942 6 10.223 6c.563 0 .827-.428.932-.589l0 .536H12V1.5H11.156zM7.313 6C6.6 6 6.021 5.411 6.021 4.688V2.759c0-.724.579-1.313 1.292-1.313s1.292.589 1.292 1.313v1.929C8.604 5.411 8.025 6 7.313 6zM7.313 2.25c-.238 0-.431.212-.431.473v2c0 .261.193.473.431.473s.431-.212.431-.473v-2C7.743 2.462 7.55 2.25 7.313 2.25z"/><path fill="#fff" d="M6.921 14.348H6.002l0-.619c-.115.169-.485.619-1.098.619-.306 0-.823-.225-.823-.901V9.394H5l0 3.885c0 .104.008.285.345.282.374-.004.657-.45.657-.45l0-3.716h.919V14.348zM3.835 8.991L2.916 8.991 2.916 14.348 1.997 14.348 1.997 8.991 1.078 8.991 1.078 8.098 3.835 8.098zM10.632 10.526c0-.389-.125-.605-.286-.803-.159-.199-.393-.35-.692-.35-.149 0-.298.041-.447.115C9.058 9.56 8.9 9.688 8.794 9.85l0-1.725H7.875v6.25h.919c0 0 0-.619 0-.619.177.203.436.624.919.619.689 0 .919-.619.919-1.126L10.632 10.526zM9.713 13.034c0 .249-.206.44-.46.44s-.455-.095-.46-.225l0-2.723c.004-.227.206-.45.46-.45s.46.198.46.649V13.034zM13.083 12.625v.182c0 .278-.027.492-.091.568-.063.085-.181.122-.367.124-.168.002-.296-.045-.36-.151-.065-.096-.099-.262-.099-.519V12H14v-1.322c0-.46-.229-1.33-1.376-1.33-1.089 0-1.374.913-1.374 1.33v2.171c0 .472.128.836.371 1.103.245.267.585.396 1.021.396.476 0 .839-.119 1.072-.376C13.96 13.727 14 13.354 14 12.85v-.225H13.083zM12.166 10.747c.004-.256.205-.476.459-.476.253 0 .459.183.459.476v.378h-.917V10.747z"/></svg>